<svg width="640" height="480" xmlns="http://www.w3.org/2000/svg" xmlns:svg="http://www.w3.org/2000/svg">
 <!-- Created with SVG-edit - http://svg-edit.googlecode.com/ -->
 <g>
  <title>Layer 1</title>
  <path d="m286,107c-2.68799,-0.57066 -3.55838,-1.04912 -4.21884,-1.409c-1.10773,-0.60359 -1.51559,-0.81036 -2.39548,-1.18201c-0.91885,-0.38809 -1.39783,-0.5687 -2.38834,-0.83833c-0.9892,-0.26927 -1.99808,-0.40786 -2.50183,-0.46533c-1.01523,-0.11581 -2.0538,-0.20179 -2.58084,-0.27333c-1.08395,-0.14713 -2.20148,-0.39701 -2.77185,-0.54633c-0.58035,-0.15193 -1.75421,-0.50472 -2.34732,-0.69466c-0.59756,-0.19138 -2.39536,-0.79233 -2.99817,-0.98967c-0.60583,-0.19833 -1.21506,-0.40289 -2.46933,-0.76534c-0.64056,-0.1851 -1.29437,-0.36967 -2.66135,-0.66933c-0.70721,-0.15503 -1.43396,-0.28537 -2.172,-0.4095c-0.74466,-0.12524 -1.49435,-0.23847 -2.24399,-0.3465c-1.48206,-0.21357 -2.91754,-0.40929 -3.6075,-0.51067c-0.67137,-0.09866 -1.32463,-0.19814 -1.96051,-0.3c-1.22591,-0.1964 -1.8175,-0.29436 -3.51599,-0.6c-0.54567,-0.09819 -1.08281,-0.19926 -2.14134,-0.4c-0.52541,-0.09963 -1.57776,-0.30131 -2.10933,-0.4c-1.63658,-0.30386 -2.19902,-0.40464 -3.34134,-0.58933c-0.57419,-0.09283 -1.14749,-0.18919 -2.29066,-0.32533c-1.11572,-0.13287 -2.19975,-0.2049 -2.73132,-0.22816c-1.05229,-0.04605 -1.57797,-0.05051 -2.63667,-0.05583c-1.08266,-0.00544 -2.2,-0.00134 -2.76866,-0.00134c-0.57268,0 -1.722,0 -2.29468,0c-1.68599,0 -2.23154,-0.01174 -3.29999,0.0135c-0.52753,0.01246 -1.58101,0.07322 -2.10535,0.158c-1.62598,0.26292 -2.17352,0.47926 -2.73132,0.6845c-1.15207,0.42389 -1.71851,0.70123 -2.29066,0.976c-0.57524,0.27624 -2.25972,1.16608 -2.80383,1.468c-0.53723,0.2981 -1.58615,0.8989 -2.10068,1.2c-0.5108,0.29892 -1.51991,0.89931 -2.52083,1.5c-0.49986,0.29999 -1.49593,0.90143 -1.97867,1.22134c-0.95937,0.63577 -1.42265,0.97433 -1.85066,1.34933c-1.27687,1.11871 -1.61884,1.58652 -2.30934,2.50134c-0.34949,0.46301 -0.67427,0.9505 -1.34399,1.93067c-0.68227,0.99853 -1.03224,1.50191 -1.77,2.49283c-0.36946,0.49624 -0.74626,0.98449 -1.12199,1.4685c-0.73924,0.95229 -1.46422,1.86509 -2.14,2.75467c-0.3309,0.4356 -0.96907,1.31992 -1.27467,1.77866c-0.31084,0.4666 -1.21721,1.99924 -1.51033,2.5675c-0.30452,0.59035 -0.59929,1.2122 -0.879,1.8645c-0.28789,0.67136 -0.58995,1.36143 -1.05067,2.84533c-0.48003,1.54606 -0.63626,2.36608 -0.79999,3.192c-0.16504,0.83249 -0.30321,1.67265 -0.429,2.5125c-0.12483,0.83351 -0.23305,1.65828 -0.339,2.4675c-0.20338,1.55324 -0.30025,2.28938 -0.40401,2.99866c-0.10065,0.68803 -0.20602,1.35791 -0.31949,2.013c-0.11192,0.64624 -0.22913,1.28683 -0.3645,1.923c-0.41383,1.94481 -0.59732,2.60266 -0.76283,3.27133c-0.16649,0.67267 -0.33702,1.34595 -0.49051,2.022c-0.30392,1.33868 -0.5358,2.65761 -0.6185,3.30367c-0.08116,0.63406 -0.18369,1.87486 -0.222,2.48c-0.03766,0.59486 -0.08492,1.75656 -0.1875,2.875c-0.09935,1.08315 -0.18387,1.60982 -0.33333,2.64584c-0.07362,0.51031 -0.235,1.51746 -0.33333,2.52083c-0.09756,0.99567 -0.12131,1.97894 -0.10417,2.45833c0.03319,0.92845 0.23047,2.22212 0.50951,2.97368c0.27208,0.73283 0.67897,1.42252 1.116,2.13599c0.72351,1.18115 0.98746,1.60925 1.58,2.48267c0.30818,0.45427 0.61029,0.93411 1.38933,1.78134c0.80281,0.87308 1.79219,1.60689 2.31416,1.95366c0.53011,0.35217 1.08678,0.6803 1.66051,0.99301c1.16364,0.63425 2.368,1.22133 2.968,1.52133c0.59999,0.3 1.2,0.59999 2.39999,1.2c0.60001,0.3 1.2,0.59999 1.8,0.89999c1.2,0.59999 2.40045,1.20047 3.0045,1.4955c0.60529,0.29564 1.21371,0.58937 1.8315,0.86852c1.24419,0.56218 2.52831,1.07576 3.18567,1.31416c0.66267,0.24033 1.33768,0.46341 2.02499,0.66449c0.69276,0.20268 1.39598,0.39339 2.11501,0.53851c2.1942,0.44289 2.95926,0.48413 3.72499,0.54816c0.77435,0.06474 1.55983,0.10378 2.35501,0.129c0.80484,0.02553 1.61998,0.03519 2.44499,0.039c1.67999,0.00778 2.535,0.00267 3.40001,0.00267c0.875,0 1.75999,0 2.655,0c0.905,0 1.81999,0 2.745,0c1.88,0 2.8345,0 3.79601,0c0.9655,0 1.93199,0 2.8965,0c0.95949,0 1.911,0 2.8515,0c1.836,0 2.72635,0.00172 3.59866,-0.00267c0.85634,-0.00432 1.69881,-0.01349 2.52899,-0.039c0.82051,-0.02522 1.63365,-0.06001 2.43901,-0.129c1.60501,-0.13748 2.40398,-0.2636 3.20132,-0.40134c0.79842,-0.13792 1.59245,-0.30298 2.38051,-0.49049c0.7867,-0.18719 1.56654,-0.39386 2.33549,-0.6255c1.52466,-0.45929 2.26563,-0.72897 3.00134,-0.99733c0.73297,-0.26735 1.4595,-0.54849 2.18399,-0.83549c0.7262,-0.28767 1.45239,-0.58434 2.18399,-0.88051c1.48212,-0.60001 2.23688,-0.89902 2.99734,-1.19867c0.76221,-0.30034 1.52338,-0.59825 2.27701,-0.89999c0.74503,-0.29829 1.47745,-0.59349 2.18698,-0.89999c1.36011,-0.58755 1.99304,-0.89444 2.59866,-1.20134c0.58734,-0.29762 1.151,-0.60414 1.69351,-0.91949c0.53348,-0.31009 1.05298,-0.63025 1.5585,-0.96451c1.01212,-0.66924 1.50589,-1.03357 2.004,-1.39999c0.50192,-0.36923 1.00122,-0.74911 1.5,-1.1355c0.50122,-0.38826 1.00061,-0.78291 1.5,-1.18051c1.00122,-0.79713 1.99927,-1.59792 2.49551,-1.99866c0.49442,-0.39926 0.98779,-0.79504 1.94733,-1.60001c0.47388,-0.39755 1.3974,-1.19249 2.26917,-1.99866c0.4252,-0.3932 0.84131,-0.78017 1.60532,-1.56534c0.72089,-0.74088 1.35876,-1.46162 1.91333,-2.15067c0.51694,-0.64227 0.97446,-1.28212 1.45203,-1.884c0.72403,-0.91252 1.26352,-1.49004 1.77567,-2.05966c0.69043,-0.76793 1.24304,-1.59653 1.64249,-2.28984c0.54495,-0.94589 1.15024,-1.40451 1.56583,-2.25183c0.36765,-0.74957 0.49411,-1.8364 0.83334,-2.47917c0.43533,-0.82484 0.51178,-1.72224 0.5,-2.6875c-0.01044,-0.85434 -0.12881,-1.84688 -0.36166,-2.43784c-0.34528,-0.87625 -0.96259,-1.81537 -1.29102,-2.35716c-0.35046,-0.57811 -0.89798,-1.51018 -1.32599,-2.55949c-0.29272,-0.71767 -0.50027,-1.46585 -0.77399,-2.16901c-0.38474,-0.98839 -0.89862,-1.80878 -1.26819,-2.30983c-0.57144,-0.77475 -1.19019,-1.63611 -1.57465,-2.30533c-0.39529,-0.68811 -0.74915,-1.38843 -1.23785,-2.36134c-0.41101,-0.81823 -0.76654,-1.50678 -1.26648,-2.53349c-0.29581,-0.60748 -0.66196,-1.47681 -0.81616,-2.4825c-0.12137,-0.79167 0.03683,-1.63641 -0.52002,-2.64534c-0.42392,-0.76809 -1.17007,-1.25176 -1.53867,-2.072c-0.35178,-0.78279 -0.82632,-1.40034 -1.52533,-2.1c-0.69968,-0.70033 -1.2897,-1.12285 -1.88934,-1.91067c-0.53101,-0.69764 -0.37039,-1.70374 -0.96783,-2.484c-0.56116,-0.73288 -1.16241,-1.11028 -1.52167,-2.08383c-0.2608,-0.70671 -1.04214,-1.33487 -1.55316,-1.8215c-0.6958,-0.66261 -1.271,-1.25533 -2.06799,-1.7c-0.79849,-0.44551 -1.70001,-0.5 -2.60001,-0.50017l-0.89999,-0.1665l-0.60001,-0.408" id="svg_16" stroke-width="5" stroke="#000000" fill="none"/>
  <path d="m170,247c0.05716,1.7 0.51843,2.59764 1.33333,2.83333c0.95102,0.27505 1.63196,0.16032 2.41068,0.16534c1.44279,0.00931 2.004,0.00133 2.60716,0.00133c0.64616,0 1.33633,0 2.85266,0c0.82817,0 2.6295,0 3.60384,0c1.02034,0 2.08267,0 3.183,0c1.13434,0 2.29868,0 3.489,0c1.21234,0 3.68701,-0.00049 4.94217,0.00017c1.26617,0.00067 2.54436,0.0024 3.83551,0.0105c1.30518,0.00819 2.62538,0.022 3.96149,0.04649c1.35324,0.0248 4.1147,0.10452 5.52484,0.16467c1.43256,0.0611 2.88905,0.13834 4.371,0.2355c1.51074,0.09906 3.05127,0.21851 4.623,0.3615c1.60698,0.14619 4.9297,0.50877 6.64799,0.72383c1.75375,0.2195 3.53412,0.46179 5.33701,0.70801c1.81912,0.24843 3.64749,0.50246 5.48099,0.74399c1.83051,0.24113 5.46227,0.67909 7.25351,0.86267c1.7728,0.18169 3.53287,0.33899 5.28149,0.492c1.74037,0.1523 3.47635,0.29741 5.2095,0.45599c1.73486,0.15875 5.21941,0.52037 6.97249,0.73734c1.759,0.2177 3.51443,0.45972 5.26202,0.70801c1.73441,0.2464 3.44775,0.50034 5.13599,0.74399c1.65576,0.23898 4.84723,0.67822 6.37366,0.86234c1.47897,0.17838 2.91693,0.33301 4.31702,0.47101c1.36526,0.13455 2.70114,0.25275 4.01099,0.36301c1.28751,0.10837 3.81305,0.30859 5.05801,0.409c1.23502,0.09961 2.46002,0.19958 3.67499,0.29999c1.20505,0.09961 2.40002,0.19962 3.58502,0.30002c1.17502,0.09958 3.49509,0.2991 4.64014,0.40015c1.13626,0.10028 2.26456,0.20206 3.38553,0.31052c1.11536,0.10791 2.22571,0.22168 3.33148,0.3465c1.10361,0.12457 3.30518,0.40488 4.40399,0.56433c1.0972,0.15921 2.18768,0.33173 3.26852,0.5145c1.07016,0.18097 2.12463,0.37128 3.16049,0.56851c1.01614,0.19348 2.97223,0.59204 3.90683,0.79565c0.90808,0.19785 1.78976,0.39984 2.646,0.6105c0.83643,0.20578 1.65219,0.41992 2.448,0.64648c0.78287,0.22287 2.30579,0.70435 3.04901,0.96417c0.73679,0.25757 1.46097,0.52878 2.17499,0.80402c0.70599,0.27213 1.39999,0.54932 2.08502,0.82199c0.67499,0.26868 1.99405,0.78848 2.64014,1.03116c0.63525,0.23862 1.26373,0.46609 1.88553,0.68552c0.61453,0.21686 1.22501,0.42624 1.83148,0.6315c0.60287,0.20404 1.8046,0.60422 2.40417,0.8045c0.59775,0.19971 1.19174,0.39874 1.77899,0.59998c0.58011,0.19879 1.15018,0.39774 1.707,0.60001c0.54449,0.19778 1.58224,0.59695 2.0715,0.80002c0.47473,0.19702 0.93369,0.39847 1.3815,0.59998c0.44116,0.19852 0.87592,0.40021 1.30951,0.60001c0.43439,0.2002 1.31769,0.60184 1.7735,0.80002c0.4642,0.20184 0.9393,0.4017 1.42499,0.59998c0.49429,0.20175 0.99936,0.40167 1.51501,0.60001c0.52435,0.20169 1.60443,0.60153 2.15948,0.79984c0.56094,0.20041 1.1265,0.39716 1.69351,0.58951c0.56396,0.19131 1.12347,0.37625 1.67551,0.5535c0.54001,0.1734 1.57584,0.49274 2.06683,0.6355c0.47171,0.13715 0.9278,0.26334 1.371,0.375c0.42953,0.10822 0.84979,0.20428 1.26297,0.285c0.40555,0.07922 1.20853,0.19943 1.60886,0.24017c0.39841,0.04056 0.7955,0.06723 1.18948,0.08548c0.38971,0.01804 0.77466,0.02682 1.1535,0.03152c0.3718,0.00461 1.09052,0.00449 1.43552,0.00449c0.33499,0 0.66,0 0.97498,0c0.30502,0 0.60001,0 0.88501,0c0.27499,0 0.79501,0 1.04001,0c0.23499,0 0.45999,0 0.67499,0c0.20502,0 0.39999,0 0.58502,0c0.17499,0 0.495,0 0.64014,0c0.13617,0 0.26434,0 0.38553,0c0.11514,0 0.22531,0 0.33148,0c0.10318,0 0.3045,-0.00052 0.40451,0.00015c0.10001,0.00067 0.20013,0.00235 0.29999,0.01053c0.10019,0.00818 0.20001,0.02533 0.30002,0.04648l0.09998,0.02817" id="svg_17" stroke-width="5" stroke="#000000" fill="none"/>
  <path d="m253,159c-0.94284,1.08501 -0.99364,1.93996 -0.99867,2.66c-0.00912,1.30446 -0.00133,1.79599 -0.00133,2.84799c0,0.5545 0,1.70551 0,2.29601c0,1.196 0,2.39867 0,3.005c0,0.61234 0,1.86299 0,2.50533c0,0.65634 0.00049,2.019 -0.00017,2.72884c-0.00067,0.72884 -0.00244,1.47568 -0.0105,2.2395c-0.00822,0.77985 -0.02205,1.57475 -0.04649,2.3835c-0.02484,0.82195 -0.10542,2.50078 -0.16434,3.35567c-0.05971,0.86646 -0.13335,1.74455 -0.21451,2.6355c-0.08247,0.90538 -0.17403,1.82539 -0.26849,2.76151c-0.09619,0.95322 -0.29642,2.9144 -0.39551,3.92433c-0.10094,1.02873 -0.20073,2.07561 -0.29999,3.1395c-0.10074,1.07977 -0.20058,2.17462 -0.3,3.28351c-0.10059,1.12178 -0.30043,3.40047 -0.40001,4.5555c-0.10043,1.16496 -0.20041,2.33997 -0.29999,3.52499c-0.10042,1.19498 -0.20041,2.39998 -0.3,3.61501c-0.1004,1.22496 -0.29991,3.705 -0.40018,4.95999c-0.10107,1.26501 -0.20276,2.54015 -0.31049,3.82501c-0.10858,1.29514 -0.22235,2.60027 -0.34651,3.91499c-0.12515,1.32529 -0.40517,4.00551 -0.5645,5.36c-0.16063,1.36552 -0.33577,2.74057 -0.52499,4.125c-0.19075,1.3956 -0.3959,2.80063 -0.61501,4.215c-0.22086,1.42564 -0.70215,4.30551 -0.95966,5.76033c-0.25981,1.46786 -0.53195,2.94856 -0.804,4.446c-0.27528,1.51523 -0.55327,3.04999 -0.82201,4.608c-0.27264,1.58066 -0.79172,4.82318 -1.03134,6.48834c-0.24313,1.68951 -0.47054,3.4024 -0.696,5.133c-0.22722,1.74408 -0.44882,3.4989 -0.67799,5.259c-0.22949,1.76257 -0.70859,5.2778 -0.96899,7.02249c-0.2596,1.73932 -0.53531,3.47379 -0.82501,5.20651c-0.2903,1.7363 -0.59615,3.47668 -0.91499,5.22449c-0.32112,1.76022 -1.0024,5.32404 -1.35983,7.13318c-0.36119,1.82819 -0.73398,3.67166 -1.1145,5.52899c-0.38312,1.87 -0.77383,3.74951 -1.1685,5.63699c-0.396,1.89386 -1.19519,5.69107 -1.59549,7.59052c-0.3997,1.89655 -0.79878,3.78726 -1.20001,5.66849c-0.39879,1.86975 -0.79779,3.72449 -1.2,5.56052c-0.39781,1.81598 -1.19714,5.37216 -1.59982,7.10648c-0.39603,1.70566 -0.79414,3.38037 -1.18951,5.02502c-0.38834,1.61536 -0.77451,3.20001 -1.15349,4.755c-0.37169,1.52502 -1.09088,4.48489 -1.43584,5.91998c-0.33771,1.40491 -0.66611,2.78061 -0.996,4.125c-0.32283,1.31561 -0.64502,2.6015 -0.978,3.85501c-0.32581,1.2265 -1.00592,3.58755 -1.36867,4.72c-0.35477,1.10754 -0.72557,2.18207 -1.104,3.22498c-0.36905,1.01706 -0.74588,2.00134 -1.12199,2.95502c-0.36533,0.9263 -1.08531,2.68527 -1.431,3.52032c-0.33434,0.80762 -0.66039,1.58853 -0.97501,2.34601c-0.30536,0.73517 -0.6015,1.45004 -0.88499,2.14801c-0.27649,0.68073 -0.79642,2.00345 -1.0405,2.64899c-0.2399,0.63449 -0.47046,1.26099 -0.70651,1.875c-0.23297,0.60599 -0.4695,1.20282 -0.72449,1.785c-0.2531,0.57785 -0.81416,1.70044 -1.13318,2.23965c-0.31844,0.53824 -0.66302,1.05734 -1.02899,1.55402c-0.36157,0.49072 -0.74156,0.95627 -1.13701,1.392c-0.3862,0.42557 -1.18466,1.18369 -1.59082,1.51166c-0.39285,0.31723 -0.79301,0.60129 -1.18951,0.867c-0.38727,0.25955 -0.77522,0.50046 -1.15349,0.741c-0.37239,0.23682 -1.09367,0.71875 -1.436,0.97766c-0.34172,0.25845 -0.6731,0.53125 -1.0065,0.80402c-0.33559,0.27457 -0.673,0.55319 -1.02451,0.82199c-0.35651,0.27264 -1.11943,0.79294 -1.53265,1.03101c-0.42017,0.2421 -0.85637,0.46405 -1.2975,0.67499c-0.43726,0.20908 -0.87267,0.40152 -1.2975,0.58502c-0.40854,0.17645 -1.16315,0.49353 -1.49817,0.64032c-0.31027,0.13596 -0.59828,0.26669 -0.867,0.396c-0.25658,0.12344 -0.5024,0.24869 -0.741,0.37799c-0.23875,0.12936 -0.72346,0.41327 -0.97766,0.56851c-0.26315,0.16074 -0.53062,0.32819 -0.804,0.4935c-0.27396,0.16568 -0.54745,0.32745 -0.82201,0.47549c-0.26686,0.14389 -0.78372,0.3829 -1.03117,0.46701c-0.23418,0.07959 -0.46362,0.13629 -0.6855,0.18149c-0.21454,0.0437 -0.42545,0.07526 -0.63148,0.1095c-0.20329,0.03378 -0.60573,0.11423 -0.80484,0.17352c-0.20367,0.06064 -0.40981,0.13721 -0.621,0.22498c-0.22157,0.0921 -0.45128,0.19873 -0.69299,0.315c-0.25699,0.12363 -0.81891,0.40518 -1.12817,0.55951c-0.32405,0.16171 -0.65793,0.32782 -0.9975,0.4935c-0.33878,0.16531 -0.67255,0.32574 -0.9975,0.47549c-0.30843,0.14215 -0.86125,0.37982 -1.09801,0.46701c-0.20744,0.07642 -0.39259,0.13437 -0.5565,0.18149c-0.14514,0.04172 -0.27599,0.07602 -0.39449,0.1095l-0.10951,0.03452" id="svg_18" stroke-width="5" stroke="#000000" fill="none"/>
  <path d="m256,251c0,2.95717 0,3.52083 0,4.40134c0,1.19998 0,1.80933 0,2.75583c0,1.00949 -0.01158,1.73132 0.02133,2.50018c0.03537,0.82611 0.10876,1.72275 0.42184,3.18597c0.11411,0.53336 0.26343,1.08371 0.61932,2.24002c0.18835,0.612 0.40057,1.24106 0.62549,1.88998c0.47217,1.36227 0.73114,2.07108 1.00134,2.80002c0.27841,0.7511 0.57367,1.522 0.89401,2.31c0.33017,0.8121 0.68216,1.64478 1.07401,2.48999c0.82077,1.77032 1.30222,2.67236 1.79733,3.59866c0.50748,0.94946 1.04202,1.91104 1.58698,2.8905c0.55371,0.99521 1.12024,2.00064 1.677,3.02551c1.12595,2.07257 1.66296,3.13193 2.19867,4.19598c0.53732,1.06726 1.06601,2.14233 1.60352,3.216c0.53851,1.07568 1.07816,2.15308 1.6485,3.216c1.14243,2.12906 1.7655,3.1676 2.40265,4.19867c0.63855,1.03336 1.30438,2.05356 1.99051,3.06448c0.68854,1.01447 1.39737,2.0209 2.12549,3.0195c1.46606,2.01059 2.23053,3.00375 2.99869,4.00134c0.77185,1.00241 1.55695,2.00244 2.35498,3c0.80197,1.00247 1.61557,2.00366 2.44501,3c1.67111,2.00742 2.53168,3.00275 3.39999,3.99866c0.87167,0.99976 1.75604,1.99426 2.655,2.9805c0.90103,0.98846 1.81299,1.97043 2.745,2.93552c1.86603,1.93225 2.83154,2.86688 3.79602,3.79999c0.96252,0.93121 1.93195,1.8494 2.89648,2.7645c0.95944,0.91025 1.91586,1.81131 2.8515,2.71951c1.84561,1.79147 2.73016,2.69778 3.60001,3.60132c0.86313,0.89655 1.70935,1.79877 2.54849,2.70001c0.83685,0.89874 1.66699,1.80185 2.50351,2.70001c1.67996,1.80374 2.53613,2.70209 3.40134,3.59732c0.86612,0.89615 1.73883,1.78384 2.616,2.66101c0.87216,0.87216 1.74344,1.73135 2.616,2.57098c1.70975,1.64526 2.56024,2.43063 3.40134,3.20132c0.83194,0.7623 1.66568,1.51065 2.50351,2.2485c0.83817,0.73813 1.68616,1.47235 2.54849,2.20352c1.75824,1.49078 2.67288,2.23941 3.59866,3.00266c0.93686,0.7724 1.88388,1.54919 2.832,2.33551c0.95056,0.78836 1.89954,1.57794 2.832,2.38049c1.84439,1.58743 2.7283,2.39578 3.60132,3.19998c0.86865,0.80017 1.72675,1.60925 2.58752,2.41953c0.86588,0.81506 1.73737,1.64096 2.63248,2.46448c1.83792,1.69092 2.80829,2.53873 3.79868,3.39868c1.0036,0.87143 2.02402,1.74133 3.048,2.616c1.02399,0.87466 2.04602,1.74268 3.048,2.616c1.95993,1.70828 2.89105,2.55862 3.79599,3.39868c0.88803,0.82437 1.75043,1.64685 2.59351,2.46448c0.83289,0.80774 1.65024,1.61508 2.4585,2.41953c1.60648,1.59885 2.40417,2.40063 3.20132,3.19998c0.79419,0.79633 1.58267,1.58939 2.36102,2.38049c0.77094,0.78357 1.53076,1.56036 2.271,2.33551c1.44409,1.51224 2.12997,2.26141 2.79868,2.99866c0.65558,0.72281 1.29108,1.43845 1.90948,2.14502c0.6069,0.69345 1.19769,1.37881 1.77451,2.05499c1.12405,1.31769 1.66638,1.96512 2.20267,2.60001c0.52805,0.62512 1.04828,1.24088 1.56448,1.845c0.50916,0.59589 1.01331,1.18268 1.5195,1.755c0.99533,1.12534 1.49921,1.66684 2,2.19998c0.4949,0.52686 0.98944,1.0412 1.4805,1.54501c0.48361,0.49619 0.96307,0.98059 1.43552,1.45499c0.91745,0.9212 1.36383,1.36517 1.79999,1.80133c0.42816,0.42816 0.84933,0.84933 1.2645,1.2645c0.41019,0.41019 0.81635,0.81635 1.21951,1.21951c0.80133,0.80133 1.20032,1.202 1.60132,1.59866c0.39902,0.39468 0.79749,0.78403 1.20001,1.16101c0.39752,0.37231 0.7937,0.7348 1.20001,1.07098c0.78806,0.65204 1.19638,0.9328 1.59866,1.20001c0.39349,0.26138 0.78906,0.50134 1.18048,0.729c0.38333,0.22296 0.7641,0.43188 1.1355,0.63898c0.71951,0.40121 1.06436,0.60196 1.40134,0.80136c0.33167,0.19626 0.65756,0.39252 0.98401,0.58047c0.32428,0.18671 0.64917,0.37064 0.98401,0.53552c0.67584,0.33282 1.03568,0.46826 1.39999,0.59998c0.36703,0.13269 0.74063,0.25165 1.116,0.3645c0.37399,0.11246 0.74738,0.21622 1.116,0.31952c0.71741,0.20108 1.06247,0.30072 1.39734,0.39999c0.32513,0.09641 0.63971,0.19165 0.94501,0.28049c0.29471,0.08575 0.57889,0.16797 0.85498,0.2355c0.5181,0.12677 0.76468,0.16626 1,0.20132c0.2247,0.03348 0.44009,0.05804 0.64502,0.08401c0.19507,0.02472 0.38132,0.04608 0.55499,0.08401c0.32291,0.0705 0.46707,0.13367 0.60266,0.19998c0.13315,0.06512 0.25867,0.14133 0.384,0.216l0.12534,0.07468l0.12732,0.07266l0.13135,0.06866" id="svg_19" stroke-width="5" stroke="#000000" fill="none"/>
 </g>
</svg>