<svg width="640" height="480" xmlns="http://www.w3.org/2000/svg" xmlns:svg="http://www.w3.org/2000/svg">
 <!-- Created with SVG-edit - http://svg-edit.googlecode.com/ -->
 <g>
  <title>Layer 1</title>
  <polyline id="svg_2" points="18,431 " opacity="0.5" stroke-linecap="round" stroke-width="5" stroke="#000000" fill="none"/>
  <polyline id="svg_6" points="170,185 " opacity="0.5" stroke-linecap="round" stroke-width="5" stroke="#000000" fill="none"/>
  <polyline id="svg_7" points="252,295 " opacity="0.5" stroke-linecap="round" stroke-width="5" stroke="#000000" fill="none"/>
  <polyline id="svg_8" points="326,181 " opacity="0.5" stroke-linecap="round" stroke-width="5" stroke="#000000" fill="none"/>
  <polyline id="svg_9" points="83,167 " opacity="0.5" stroke-linecap="round" stroke-width="5" stroke="#000000" fill="none"/>
  <path d="m5,466c2.968,0 3.65067,0 4.69467,0c0.972,0 1.791,0 2.69633,0c1.00767,0 1.773,0 2.725,0c0.768,0 1.72,0 2.48533,0c0.99417,0 1.91333,0 2.87783,0c0.82983,0 1.85417,0 2.52617,0c0.744,0 1.85183,0 2.74283,0c0.9045,0 1.76783,0 2.731,0c0.82533,0 1.84233,0 2.54167,0c0.97917,0 1.77917,0 2.57916,0c1,0 1.8,0 2.79867,0c0.94417,0 1.84867,0 2.768,0c0.85416,0 1.83333,0 2.63333,0c0.8,0 1.7955,0 2.54284,0c1.02116,0 1.85717,0 2.75733,0c0.78517,0 1.72517,0 2.73317,0c0.86217,0 1.66667,0 2.56667,0c0.9,0 1.80133,0 2.76667,0c0.83333,0 1.81183,0 2.52883,0c0.9045,0 1.82021,-0.1571 2.7045,0.01068c0.94591,0.17947 1.63689,0.7262 2.4,1.07333c0.85426,0.38858 1.59946,0.89798 2.5,0.91599c0.89981,0.01801 1.8,0 2.7,0c0.75716,0 1.65717,0 2.4045,0c0.99416,0 1.93833,0 2.84283,0c0.91933,0 1.77351,0 2.75267,0c0.78933,0 1.83334,0 2.58933,0c0.91067,0 1.81882,-0.11652 2.71067,0.00449c0.82134,0.11142 1.46861,0.84735 2.39999,0.99103c0.88949,0.13721 1.8,0.00449 2.6045,0.00449c1.01701,0 1.71634,0 2.6955,0c0.8,0 1.6,0 2.5955,0c0.91917,0 1.9045,0 2.72584,0c0.85333,0 1.79468,0.00436 2.56267,0c0.94138,-0.00534 1.93401,-0.20029 2.63683,-0.5c1.00249,-0.42749 1.74006,-0.47803 2.531,-0.49551c1.02625,-0.02271 1.9065,-0.00449 2.7815,-0.00449c0.86217,0 1.81815,0.01184 2.65067,-0.284c0.70609,-0.25092 1.62759,-0.67328 2.516,-0.716c0.88431,-0.04251 1.82537,0.00732 2.516,0c0.98417,-0.01044 1.96077,-0.30182 2.65867,-0.57468c0.93097,-0.36398 1.82533,-0.42532 2.5825,-0.42532c0.8955,0 1.75883,0 2.722,0c0.9315,0 1.84217,0 2.6955,0c0.94,0 1.82533,0 2.62534,0c0.89999,0 1.836,0 2.68399,0c0.86334,0 1.76334,0 2.68268,0c0.85416,0 1.83333,0 2.644,0c0.87466,0 1.87334,0 2.68933,0c0.81599,0 1.81467,0 2.68933,0c0.81067,0 1.62134,0 2.496,0c1,0 1.83549,0 2.716,0c0.8985,0 1.78799,0 2.64149,0c1.03568,0 1.93634,0 2.55583,0c1.00134,0 1.80133,0 2.80133,0c0.8,0 1.8,0 2.60001,0c1,0 1.8,0 2.60001,0c1,0 1.79999,0 2.79999,0c0.8,0 1.80017,0 2.62083,0c1.14584,0 1.93184,0 2.75385,0c1.05865,0 1.76816,0 2.62082,0c1.0045,0 1.8045,0 2.8045,0c0.8,0 1.8,0 2.60001,0c0.8,0 1.8,0 2.59999,0c1,0 1.8,0 2.80017,0c0.82066,0 1.48517,0 2.4825,0c1.056,0 1.99953,0.13651 2.77567,-0.02084c0.89079,-0.18057 1.70404,-0.83472 2.37767,-0.95383c0.76129,-0.13461 1.74986,-0.40372 2.50684,-0.67267c1.02003,-0.36243 1.97179,-0.59195 2.67799,-0.85266c0.97034,-0.35822 1.78931,-0.47818 2.43634,-0.49551c0.96399,-0.02582 1.78149,0.02081 2.64734,-0.06165c1.20145,-0.11444 1.79785,-0.30469 2.73149,-0.51752c0.64792,-0.14771 1.68373,-0.32785 2.78934,-0.38931c0.7486,-0.04163 1.49066,-0.03534 2.55316,-0.03601c0.9855,-0.00061 1.61084,0 2.8215,0c0.60133,0 1.52083,0 2.15717,0c1.36417,0 2.0955,0 2.84283,0c0.74733,0 2.17845,0.00903 2.83833,-0.00449c0.91534,-0.01877 1.49637,0.00302 2.7,-0.34818c0.81842,-0.2388 1.70767,-0.61874 2.62834,-0.64734c0.66901,-0.02078 1.83333,0 2.63333,0c0.8,0 1.8045,0 2.43599,0c1.18518,0 1.97867,0 2.75418,0c1.0405,0 1.75891,-0.03656 2.66699,0.00449c0.94666,0.04279 1.73529,0.30637 2.57883,0.57019c0.92192,0.28833 1.72034,0.38757 2.57468,0.41464c1.18878,0.03769 1.78667,0.01068 2.64766,0.01068c0.77101,0 1.89101,0 2.875,0c0.6765,0 1.45206,-0.00986 2.74518,0.00015c0.68556,0.00531 1.53139,0.04602 2.526,0.35251c0.63969,0.19711 1.81464,0.54993 2.62082,0.61133c0.54834,0.04175 1.85318,0.03601 2.53868,0.03601c0.83466,0 1.84261,-0.0582 2.63599,0.05716c1.01474,0.14755 1.78302,0.57767 2.60001,0.77618c0.77747,0.1889 1.83334,0.16666 2.62534,0.16666c1.03183,0 1.77917,0 2.77335,0c0.76532,0 1.71597,0 2.70132,0c0.89999,0 1.69998,0 2.60001,0c0.82083,0 1.784,0 2.64731,0c0.90002,0 1.81934,0 2.65268,0c0.97849,0 1.79868,0 2.70001,0c0.89999,0 1.72131,0 2.63333,0c0.92798,0 1.71848,0 2.74533,0c0.69598,0 1.60532,0 2.60666,0c0.83551,0 1.716,0 2.61465,0c0.90002,0 1.80002,-0.00223 2.70001,0c0.89999,0.00226 1.80252,0.01144 2.39999,0.08533c1.20715,0.14929 1.79459,0.36325 2.70001,0.56201c1.19348,0.26199 1.79471,0.31439 2.664,0.34198c1.06885,0.03394 2,0.01068 2.6315,0.01068c1.00449,0 1.8045,0 2.8045,0c0.79999,0 1.79999,0 2.59998,0c0.80002,0 1.80002,0 2.60001,0c0.99869,0 1.94284,0 2.85184,0c0.7175,0 1.76251,0 2.56949,0c1.17868,0 1.77869,0 2.67868,0c0.89999,0 1.80026,0.01877 2.68933,-0.01068c0.85431,-0.02829 1.89188,-0.20221 2.58533,-0.41464c0.91281,-0.2796 1.90787,-0.51181 2.72534,-0.55383c0.81516,-0.04193 1.81467,-0.02084 2.47916,-0.02084c1.02084,0 1.82083,0 2.62085,0c0.99548,0 1.91467,0 2.85834,0c0.90332,0 1.86349,0 2.60416,0c0.7095,0 1.90683,0 2.59885,0c0.724,0 1.45599,0 2.85464,0c0.65866,0 1.63669,0 2.65067,0c0.716,0 1.448,0 2.5235,0c0.9765,0 1.7955,0 2.70084,0c1.01035,0 1.845,0 2.77567,0c0.78152,0 1.57202,0 2.69052,0c0.75748,0 1.7955,0 2.49014,0c1.02734,0 1.97629,0.03586 2.69434,-0.02084c1.13089,-0.08932 1.91443,-0.32529 2.45834,-0.5c0.82153,-0.26389 1.82065,-0.66632 2.68933,-1.07916c0.81647,-0.388 1.62219,-0.8237 2.32501,-1.10001c1.11426,-0.43808 1.7948,-0.60251 2.5065,-0.79999c0.73026,-0.20264 1.81195,-0.50192 2.82199,-0.7955c0.63599,-0.18484 1.24353,-0.39996 2.45715,-0.58316c0.89499,-0.1351 1.50723,-0.09488 2.70001,-0.28799c0.9072,-0.14688 1.49423,-0.35904 2.39999,-0.54935c0.89502,-0.18805 1.79965,-0.26151 2.70001,-0.27951c0.89981,-0.01801 1.7955,-0.00449 2.664,-0.00449c1.06934,0 1.77432,0 2.74933,0c0.96582,0 1.79565,0 2.82001,0c0.67648,0 1.452,0 2.5,0c0.94131,0 1.61932,0 2.85199,0c0.55066,0 1.41916,0 2.6145,0c0.8895,0 1.46417,0 2.53351,0c0.93066,0 1.76532,0 2.76215,0c0.74734,0 1.77917,0 2.72601,0c0.69934,0 1.6785,0 2.47849,0c0.80002,0 1.7955,0 2.71469,0c0.98532,0 1.80664,0 2.65997,0c0.94269,0 1.79468,0 2.5947,0c1.01599,0 2.064,0 2.77798,0c0.67801,0 1.87399,0 2.67801,0c0.82199,0 1.85315,0 2.53867,0c0.83466,0 1.836,0 2.63599,0c1,0 1.80002,0 2.80002,0c0.79999,0 1.79999,0 2.61066,0c0.87466,0 1.87201,0 2.66849,0c0.7515,0 1.85962,-0.01489 2.84216,0.00015c0.67892,0.01041 1.75027,0.11621 2.37418,0.76151c0.61218,0.63318 0.81931,1.54642 1.62601,1.99551c0.80881,0.45026 1.88815,0.43903 2.47849,0.67883c0.81482,0.33099 1.78223,0.88965 2.36401,1.12799c1.06201,0.43509 2.00266,0.436 2.672,0.436c0.76532,0 1.76401,0 2.564,0c1,0 1.80002,0 2.80002,0c0.79999,0 1.79999,0 2.61066,0c0.87466,0 1.87332,0 2.68933,0c0.81601,0 1.81601,0 2.72534,0c0.94131,0 1.72733,0 2.54932,0c1.05869,0 2,0 2.67801,0c0.96866,0 1.77267,0 2.59467,0c1.03134,0 1.95267,0 2.63666,0c1,0 1.81601,0 2.63202,0c1.22232,0 2.02234,0 2.92682,0c0.9585,0 1.92383,0 2.59317,0c0.76532,0 1.76401,0 2.564,0c0.99869,0 1.94647,-0.07663 2.84735,0.00449c0.92975,0.08371 1.57025,0.47495 2.35397,0.71152c0.98044,0.29596 1.79868,0.28174 2.79868,0.284c0.80002,0.0018 1.80002,0 2.60001,0c1,0 1.78934,0 2.83334,0c0.79199,0 1.81934,0 2.51398,0c1.02734,0 1.97418,0 2.67352,0c0.97916,0 1.78983,0 2.66449,0c1,0 1.83551,0 2.716,0c0.89865,0 1.79868,0 2.69867,0c0.89999,0 1.80447,0 2.42081,0c0.96454,0 2.00055,0 2.73187,0c0.74731,0 1.86334,0 2.92596,0c0.6687,0 1.64667,0 2.30536,0c1.03735,0 2.1413,0 2.89069,0c0.74133,0 1.80396,0 2.79999,0c0.65063,0 1.30933,0 2.70801,0c0.73199,0 1.45599,0 2.14795,0c1.19867,0 2.14801,0 3.16937,0c0.79999,0 1.79999,0 2.59998,0c0.79999,0 1.79553,0 2.54285,0c1.03186,0 1.97864,0 2.67798,0c0.97919,0 1.77917,0 2.57916,0c1,0 1.80005,0 2.80005,0c0.79999,0 1.7998,0 2.57916,0c0.99945,0 1.90479,0 2.86749,0c0.61499,0 1.83734,0 2.65332,0c0.54736,0 1.81598,0 2.5,0c1.16669,0 1.94818,0 2.73865,0c0.92804,0 1.84003,0 2.76135,0c0.91064,0 1.82147,0 2.52081,0c0.97919,0 1.77917,0 2.57916,0c1,0 1.80005,0 2.80005,0c0.79999,0 1.7998,0.00006 2.57916,0c0.99945,-0.00009 1.9137,-0.061 2.67346,-0.35266c0.87445,-0.33569 1.71088,-0.62933 2.65186,-0.64734c0.862,-0.01651 1.71631,0 2.6955,0c0.78931,0 1.8551,0.14767 2.58936,-0.03601c0.88171,-0.22058 1.56891,-0.86081 2.43146,-0.94315c0.97498,-0.09308 1.76849,-0.02084 2.8125,-0.02084c0.75604,0 1.66669,0 2.57733,0c0.91071,0 1.76404,0 2.70404,0c0.88531,0 1.6853,0 2.64246,0c0.89551,0 1.59021,0 2.60687,0c0.93597,0 1.86035,0.10034 2.80267,-0.16666c0.69415,-0.19669 1.43127,-0.64145 2.23199,-1.03201c0.76221,-0.3718 1.71393,-0.75739 2.48529,-0.79999c0.93994,-0.05191 1.94934,-0.00134 2.81152,-0.00134c0.82532,0 1.78851,0 2.65186,0c0.89551,0 1.86743,0.07367 2.53796,-0.08533c0.98242,-0.23294 1.70148,-0.70779 2.71021,-0.85751c0.74103,-0.10999 1.76849,-0.05716 2.60583,-0.05716c0.96533,0 1.79865,0 2.63196,0c0.86218,0 1.76666,0 2.66669,0c0.90002,0 1.79999,0 2.70001,0c0.89996,0 1.79999,0 2.55713,0c0.89551,0 1.75885,-0.00558 2.72205,0c0.9209,0.00534 1.99542,0.24246 2.35413,1c0.38269,0.8082 0.87122,1 1.76666,1l0.90002,0l0.90002,0" id="svg_1" stroke-width="5" stroke="#000000" fill="none"/>
  <path d="m75,435c0,1.70001 0,2.70001 0,3.60001c0,0.81067 0,1.7215 0,2.61066c0,0.98917 0,1.76849 0,2.76801c0,0.77399 0,1.6785 0,2.42584c0,0.99417 0,1.93832 0,2.84283c0,0.91931 0,1.75266 0,2.73114c0,0.82019 0,1.72153 0,2.62152c0,0.89999 0,1.79999 0,2.69998c0,0.90002 0,1.70001 0,2.58536c0,0.94 0,1.63065 0,2.70398c0,0.91068 -0.00067,1.81067 0,2.71066c0.00067,0.89868 0.284,1.616 0.964,2.13602l0.036,0.86398l0,0.90002" id="svg_3" stroke-width="5" stroke="#000000" fill="none"/>
  <path d="m178,432c0,1.82535 0,2.83334 0,3.6955c0,0.82535 0,1.78983 0,2.51517c0,0.98935 0,1.78934 0,2.78934c0,0.78934 0,1.83334 0,2.6955c0,0.82535 0,1.78851 0,2.65182c0,0.90002 0,1.81934 0,2.65268c0,0.97867 0,1.75266 0,2.65268c0,0.86331 0,1.84732 0,2.66864c0,0.85333 0.00133,1.79333 0.16667,2.67868l0.48067,0.70001l0.33183,0.79999l0.02083,0.89999" id="svg_4" stroke-width="5" stroke="#000000" fill="none"/>
  <path d="m205,427c1.83333,0.16666 1.83673,1.03482 2.08533,1.79999c0.25697,0.79092 0.84309,1.51703 0.90401,2.44669c0.06015,0.91809 0.01067,1.71048 0.01067,2.564c0,1.18933 0,1.78934 0,2.68933c0,0.89999 0,1.79984 0,2.68933c0,0.85352 0,1.88916 0,2.57468c0,0.83466 0,1.83148 0,2.75067c0,0.96448 0,1.896 0,2.80664c0,0.85333 0,1.79333 0,2.67868c0,0.79999 0,1.70001 0,2.60001c0,0.89999 0,1.79999 0,2.7045c0,0.86215 0,1.6955 0,2.67398c0,0.82019 0,1.72153 0,2.62152c0,0.89999 0,1.79999 0.0045,2.6955l0.42084,0.67917l0.57466,0.52533l0.64734,0.55267" id="svg_5" stroke-width="5" stroke="#000000" fill="none"/>
  <path d="m239,433c0,1.70001 0,2.70001 0,3.60001c0,0.89999 0,1.79999 0,2.69998c0,0.90002 0,1.80002 0,2.70001c0,0.79999 0,1.70001 0,2.60001c0,0.89999 0,1.79999 0,2.69998c0,0.80017 0,1.58536 0,2.53601c0,0.76532 0,1.75949 0,2.67868c0,0.85999 0,1.80664 0,2.65997c0,0.94 0,1.92535 0,2.82535l0,0.79999l0,0.90002" id="svg_10" stroke-width="5" stroke="#000000" fill="none"/>
  <path d="m377,429c0,1 0,1.79999 0,2.70001c0,0.84164 0,1.84265 0,2.55066c0,0.98132 0,1.93948 0,2.91599c0,0.66934 0,1.83334 0,2.62268c0,0.72534 -0.02286,1.71097 0.00134,2.69598c0.01782,0.72595 0.20886,1.7186 0.49866,2.49384c0.32108,0.85889 0.49774,1.71634 0.5,2.54169c0.00262,0.96317 0,1.82648 0,2.72198c0,0.9585 0,1.92383 0,2.59317c0,0.76532 -0.00992,1.75955 0,2.67868c0.01044,0.96466 0.54318,1.6886 0.87851,2.58533c0.31808,0.85065 0.12149,1.69998 0.12149,2.60001l0,0.89999l0.02084,0.89999" id="svg_11" stroke-width="5" stroke="#000000" fill="none"/>
  <path d="m362,428c2.58932,0 3.5,0 4.41068,0c0.91083,0 1.61017,0 2.58932,0c0.78934,0 1.83334,0 2.6955,0c0.90451,0 1.8045,0 2.7045,0c0.89999,0 1.80002,0 2.70016,0c0.78519,0 1.72519,0 2.73318,0c0.75598,0 1.71863,-0.28909 2.556,0.01068c0.73672,0.26373 1.22131,0.9787 2.11066,0.98932c0.89999,0.01074 1.72,0.49771 2.5,0.83334c0.71127,0.30606 1.67322,0.04813 2.51599,0.25198c0.88803,0.21481 1.68866,0.78973 2.58401,0.91483c0.90646,0.12665 1.50296,0.67215 2.384,0.91583c0.84244,0.233 1.70251,0.5397 2.51599,0.91736c0.76038,0.35303 1.48032,0.70844 2.20001,1.36533c0.5845,0.53348 1.34729,1.01645 1.96664,1.63467c0.61758,0.61642 0.84998,0.45749 0.83334,-0.43335c-0.01801,-0.96451 -0.64398,-1.45465 -1.08401,-2.20132c-0.41284,-0.70053 -0.74689,-1.55127 -1.19998,-2.39868c-0.3486,-0.65198 -0.7923,-1.48755 -1.216,-2.32083c-0.40137,-0.78934 -0.4086,-1.69165 -0.72134,-2.45764c-0.31525,-0.77213 -0.77023,-1.63931 -1.20398,-2.42151c-0.4548,-0.82016 -0.47412,-1.72397 -0.689,-2.41434c-0.31403,-1.00891 -0.73029,-1.44763 -1.23752,-2.18033c-0.60678,-0.8765 -1.29022,-1.58801 -1.56549,-2.49066c-0.2157,-0.70734 -0.50476,-1.72928 -0.93335,-2.30402c-0.42419,-0.56882 -0.93661,-1.5007 -1.37067,-2.31067c-0.40485,-0.75549 -0.81018,-1.61169 -1.20398,-2.29999c-0.46606,-0.81461 -0.76773,-1.72406 -1.27917,-2.30002c-0.65021,-0.73227 -0.9035,-1.60544 -1.58084,-2.21597c-0.64624,-0.58249 -1.53885,-0.52454 -2.27866,-1.10934c-0.67822,-0.53613 -1.38672,-0.89044 -2,-1.58533c-0.58878,-0.66711 -0.66495,-1.65323 -1.32266,-2.18933c-0.71097,-0.57953 -1.54926,-0.87411 -2.228,-1.68668c-0.42566,-0.50958 -0.69919,-1.19406 -1.08536,-2.19733c-0.31232,-0.81137 -0.57327,-1.64316 -1,-2.62933c-0.2825,-0.65286 -0.76532,-1.54865 -1.32083,-2.18668c-0.6095,-0.70001 -1.33386,-1.2915 -1.76932,-1.84732c-0.66479,-0.84851 -1.04077,-1.68692 -1.42584,-2.45267c-0.40973,-0.81479 -0.15991,0.00861 -0.28415,0.89981c-0.11182,0.80209 -1.07001,1.18961 -1.479,1.92102c-0.43259,0.77359 -0.57428,1.67422 -1.02084,2.47916c-0.4436,0.79956 -0.5,1.70001 -0.5,2.60001c0,0.89999 0.00491,1.68042 -0.35718,2.55267c-0.29776,0.71729 -0.97577,1.38849 -1.35748,2.23132c-0.40173,0.88708 0.1153,1.72763 -0.32135,2.66934c-0.34775,0.75 -0.8042,1.34451 -1.13065,2.28c-0.23944,0.68619 -0.74823,1.48312 -1,2.5c-0.16891,0.68219 -0.42249,1.46024 -0.83334,2.5c-0.28091,0.71094 -0.61316,1.51563 -0.95184,2.414c-0.35114,0.93134 -0.79626,1.37119 -1.34283,2.09998c-0.64374,0.85837 -0.44907,1.87759 -0.92667,2.53134c-0.51071,0.69907 -0.62885,1.33392 -0.77881,2.22116c-0.14401,0.85202 -0.97125,1.26056 -0.99985,2.2215c-0.02539,0.85297 -0.00134,1.79333 -0.16666,2.67868l-0.40802,0.60001l-0.40448,0.89999l-0.02084,0.89999" id="svg_12" stroke-width="5" stroke="#000000" fill="none"/>
  <path d="m534,430c0,1 0,1.75717 0,2.65268c0,0.86331 0,1.82648 0,2.74731c0,0.89999 0,1.80002 0,2.70001c0,0.89999 0,1.69998 0,2.60001c0,0.89999 0,1.79999 0,2.69998c0,0.89999 0,1.80002 0,2.70001c0,0.89999 0.12427,1.67743 0.57465,2.5c0.42725,0.7804 0.23047,1.72168 0.4267,2.59866c0.1806,0.80704 0.98065,1.23679 0.99866,2.10132c0.01874,0.89984 0,1.80002 0,2.70001l0.22131,0.87866" id="svg_13" stroke-width="5" stroke="#000000" fill="none"/>
  <path d="m552,431c0,1.70001 0,2.70001 0,3.52084c0,0.96317 0,1.65381 0,2.7265c0,0.91931 0,1.79431 0,2.43933c0,0.99731 0,1.81332 0,2.62933c0,1.22684 0,1.87332 0,2.884c0,0.79999 0,1.79999 0,2.59998c0,0.80002 0,1.7955 0,2.71469c0,0.85999 0,1.80664 0,2.65997c0,0.94 0,1.82535 0,2.62534l0,0.90002l0,0.89999" id="svg_14" stroke-width="5" stroke="#000000" fill="none"/>
 </g>
</svg>